<svg version="1.1" id="Layer_1" xmlns="http://www.w3.org/2000/svg" xmlns:xlink="http://www.w3.org/1999/xlink" x="0px" y="0px"
	 width="100%" viewBox="0 0 200 200" enable-background="new 0 0 200 200" xml:space="preserve">
<path fill="#191342" opacity="1.000000" stroke="none" 
	d="
M109.000000,201.000000 
	C72.689072,201.000000 36.878147,201.000000 1.033611,201.000000 
	C1.033611,134.397446 1.033611,67.794861 1.033611,1.096142 
	C67.560760,1.096142 134.121704,1.096142 200.841324,1.096142 
	C200.841324,67.666367 200.841324,134.333145 200.841324,201.000000 
	C170.461807,201.000000 139.980911,201.000000 109.000000,201.000000 
M149.957657,131.597198 
	C150.940659,131.426498 151.933655,131.299744 152.905136,131.078476 
	C165.897385,128.119110 174.535782,116.128983 172.843201,103.423088 
	C171.089966,90.261681 158.422134,80.844055 143.815170,81.842850 
	C130.666122,82.741959 120.089630,93.499756 119.923523,106.144058 
	C119.721275,121.539253 131.991760,132.300629 149.957657,131.597198 
M50.628948,81.969315 
	C49.132931,82.042648 47.618137,81.990067 46.143955,82.209862 
	C37.004143,83.572571 29.724798,89.372620 29.498310,96.206596 
	C29.239492,104.016060 29.402582,111.872284 29.962679,119.666496 
	C30.477827,126.835243 36.422764,131.503387 44.095570,131.088715 
	C44.095570,129.513000 44.123318,127.890503 44.090878,126.269218 
	C43.930958,118.276985 43.490696,110.276108 43.760853,102.298996 
	C43.833199,100.162743 45.569637,96.968002 47.373417,96.192360 
	C56.690540,92.185898 66.854378,98.627968 67.637489,108.691376 
	C67.921196,112.337181 67.598557,116.033142 67.931816,119.671486 
	C68.577980,126.726105 74.518936,131.578018 81.389236,131.059738 
	C81.389236,121.456169 81.977913,111.817032 81.195786,102.290443 
	C80.610718,95.164009 76.148888,89.188850 69.676888,86.329140 
	C64.088509,83.859886 57.637814,83.342194 50.628948,81.969315 
M93.801308,119.472893 
	C93.801308,123.380234 93.801308,127.287575 93.801308,131.200928 
	C102.351852,130.958023 107.765198,126.117523 108.123596,118.678215 
	C108.427895,112.361710 108.239815,106.021088 108.253227,99.691101 
	C108.265495,93.900665 108.255821,88.110176 108.255821,82.359383 
	C100.003571,82.101349 94.077057,87.446854 93.890282,94.991570 
	C93.696556,102.817322 93.817848,110.650879 93.801308,119.472893 
M109.376068,61.595432 
	C104.635704,55.292820 96.356651,55.035805 92.921516,61.133575 
	C91.228455,64.138954 91.183388,66.543053 95.471413,67.187614 
	C97.703934,67.523201 99.890373,68.165375 102.244713,68.702621 
	C101.905548,70.718056 101.655678,72.202866 101.384956,73.811539 
	C108.572632,72.775726 110.815575,69.538887 109.376068,61.595432 
z"/>
<path fill="#3295D2" opacity="1.000000" stroke="none" 
	d="
M149.528381,131.664322 
	C131.991760,132.300629 119.721275,121.539253 119.923523,106.144058 
	C120.089630,93.499756 130.666122,82.741959 143.815170,81.842850 
	C158.422134,80.844055 171.089966,90.261681 172.843201,103.423088 
	C174.535782,116.128983 165.897385,128.119110 152.905136,131.078476 
	C151.933655,131.299744 150.940659,131.426498 149.528381,131.664322 
M136.399918,112.985825 
	C137.464127,114.019516 138.410248,115.224144 139.614029,116.055779 
	C143.709198,118.884911 149.607971,118.733658 153.642166,115.795486 
	C157.706558,112.835312 159.086304,108.804565 157.999969,103.981232 
	C156.975983,99.434738 152.555328,95.906296 147.525391,95.391083 
	C138.084915,94.424088 132.199142,103.073120 136.399918,112.985825 
z"/>
<path fill="#3394D1" opacity="1.000000" stroke="none" 
	d="
M51.098640,81.965538 
	C57.637814,83.342194 64.088509,83.859886 69.676888,86.329140 
	C76.148888,89.188850 80.610718,95.164009 81.195786,102.290443 
	C81.977913,111.817032 81.389236,121.456169 81.389236,131.059738 
	C74.518936,131.578018 68.577980,126.726105 67.931816,119.671486 
	C67.598557,116.033142 67.921196,112.337181 67.637489,108.691376 
	C66.854378,98.627968 56.690540,92.185898 47.373417,96.192360 
	C45.569637,96.968002 43.833199,100.162743 43.760853,102.298996 
	C43.490696,110.276108 43.930958,118.276985 44.090878,126.269218 
	C44.123318,127.890503 44.095570,129.513000 44.095570,131.088715 
	C36.422764,131.503387 30.477827,126.835243 29.962679,119.666496 
	C29.402582,111.872284 29.239492,104.016060 29.498310,96.206596 
	C29.724798,89.372620 37.004143,83.572571 46.143955,82.209862 
	C47.618137,81.990067 49.132931,82.042648 51.098640,81.965538 
z"/>
<path fill="#3496D2" opacity="1.000000" stroke="none" 
	d="
M93.801331,118.976959 
	C93.817848,110.650879 93.696556,102.817322 93.890282,94.991570 
	C94.077057,87.446854 100.003571,82.101349 108.255821,82.359383 
	C108.255821,88.110176 108.265495,93.900665 108.253227,99.691101 
	C108.239815,106.021088 108.427895,112.361710 108.123596,118.678215 
	C107.765198,126.117523 102.351852,130.958023 93.801308,131.200928 
	C93.801308,127.287575 93.801308,123.380234 93.801331,118.976959 
z"/>
<path fill="#3592CD" opacity="1.000000" stroke="none" 
	d="
M109.558601,61.950203 
	C110.815575,69.538887 108.572632,72.775726 101.384956,73.811539 
	C101.655678,72.202866 101.905548,70.718056 102.244713,68.702621 
	C99.890373,68.165375 97.703934,67.523201 95.471413,67.187614 
	C91.183388,66.543053 91.228455,64.138954 92.921516,61.133575 
	C96.356651,55.035805 104.635704,55.292820 109.558601,61.950203 
z"/>
<path fill="#151848" opacity="1.000000" stroke="none" 
	d="
M136.185120,112.678421 
	C132.199142,103.073120 138.084915,94.424088 147.525391,95.391083 
	C152.555328,95.906296 156.975983,99.434738 157.999969,103.981232 
	C159.086304,108.804565 157.706558,112.835312 153.642166,115.795486 
	C149.607971,118.733658 143.709198,118.884911 139.614029,116.055779 
	C138.410248,115.224144 137.464127,114.019516 136.185120,112.678421 
z"/>
</svg>